<svg width="48" height="48" viewBox="0 0 48 48" fill="none" xmlns="http://www.w3.org/2000/svg">
<path d="M48 24C48 30.3652 45.4714 36.4697 40.9706 40.9706C36.4697 45.4714 30.3652 48 24 48C17.6348 48 11.5303 45.4714 7.02944 40.9706C2.52856 36.4697 0 30.3652 0 24C0 17.6348 2.52856 11.5303 7.02944 7.02944C11.5303 2.52856 17.6348 0 24 0C30.3652 0 36.4697 2.52856 40.9706 7.02944C45.4714 11.5303 48 17.6348 48 24V24ZM16.062 13.938C15.7803 13.6563 15.3983 13.4981 15 13.4981C14.6017 13.4981 14.2197 13.6563 13.938 13.938C13.6563 14.2197 13.4981 14.6017 13.4981 15C13.4981 15.3983 13.6563 15.7803 13.938 16.062L21.879 24L13.938 31.938C13.7985 32.0775 13.6879 32.243 13.6124 32.4252C13.537 32.6075 13.4981 32.8028 13.4981 33C13.4981 33.1972 13.537 33.3925 13.6124 33.5748C13.6879 33.757 13.7985 33.9225 13.938 34.062C14.2197 34.3437 14.6017 34.5019 15 34.5019C15.1972 34.5019 15.3925 34.463 15.5748 34.3876C15.757 34.3121 15.9225 34.2015 16.062 34.062L24 26.121L31.938 34.062C32.0775 34.2015 32.243 34.3121 32.4252 34.3876C32.6075 34.463 32.8028 34.5019 33 34.5019C33.1972 34.5019 33.3925 34.463 33.5748 34.3876C33.757 34.3121 33.9225 34.2015 34.062 34.062C34.2015 33.9225 34.3121 33.757 34.3876 33.5748C34.463 33.3925 34.5019 33.1972 34.5019 33C34.5019 32.8028 34.463 32.6075 34.3876 32.4252C34.3121 32.243 34.2015 32.0775 34.062 31.938L26.121 24L34.062 16.062C34.2015 15.9225 34.3121 15.757 34.3876 15.5748C34.463 15.3925 34.5019 15.1972 34.5019 15C34.5019 14.8028 34.463 14.6075 34.3876 14.4252C34.3121 14.243 34.2015 14.0775 34.062 13.938C33.9225 13.7985 33.757 13.6879 33.5748 13.6124C33.3925 13.537 33.1972 13.4981 33 13.4981C32.8028 13.4981 32.6075 13.537 32.4252 13.6124C32.243 13.6879 32.0775 13.7985 31.938 13.938L24 21.879L16.062 13.938Z" fill="currentColor"/>
</svg>
